<svg width="81" height="83" viewBox="0 0 81 83" fill="none" xmlns="http://www.w3.org/2000/svg">
<ellipse cx="40.18" cy="13.8895" rx="12.346" ry="12.1745" fill="#FFC700"/>
<path d="M40.5008 28.0918C47.1841 28.0918 52.9775 23.3396 54.2763 16.7923C54.406 16.1392 53.9815 15.5047 53.3283 15.3753C52.675 15.2459 52.0407 15.6703 51.9113 16.3233C50.8356 21.7452 46.0369 25.6805 40.501 25.6805C34.0857 25.6805 28.8663 20.4611 28.8663 14.0458C28.8663 7.63058 34.0856 2.41133 40.5008 2.41133C45.854 2.41133 50.4958 6.03476 51.7888 11.2228C51.9498 11.8691 52.6048 12.2619 53.2502 12.1012C53.8964 11.9401 54.2896 11.2858 54.1286 10.6398C52.5673 4.37528 46.9634 0 40.5008 0C32.756 0 26.4548 6.30097 26.4548 14.0458C26.455 21.7909 32.756 28.0918 40.5008 28.0918Z" fill="#151515"/>
<path d="M45.8245 9.99196L39.6321 16.1846L35.1759 11.7283C34.7051 11.2576 33.9416 11.2576 33.4709 11.7283C33.0001 12.1993 33.0001 12.9626 33.4709 13.4334L38.7796 18.742C39.0056 18.9681 39.3123 19.0951 39.6321 19.0951C39.9518 19.0951 40.2585 18.9681 40.4845 18.742L47.5296 11.6969C48.0005 11.2259 48.0005 10.4626 47.5296 9.99179C47.0588 9.52126 46.2955 9.52126 45.8245 9.99196Z" fill="#151515"/>
<path d="M80.389 33.0419L76.4562 29.1091C75.9852 28.6384 75.222 28.6384 74.7511 29.1091C74.2803 29.5802 74.2803 30.3434 74.7511 30.8143L78.4536 34.5166L70.4192 42.551L55.4603 27.5921L63.4947 19.5577L70.7724 26.8356C71.2434 27.3063 72.0067 27.3063 72.4775 26.8356C72.9484 26.3646 72.9484 25.6013 72.4775 25.1304L64.9691 17.6222C64.1559 16.8093 62.8327 16.8094 62.0194 17.6224L53.5245 26.1175C52.7117 26.9306 52.7117 28.2538 53.5246 29.0672L54.2828 29.8253L51.6944 32.4136C49.8935 34.2147 47.2002 34.7706 44.8329 33.8299C41.5702 32.5331 37.8579 33.2994 35.3755 35.7818L33.4106 37.7472L26.9868 31.3234L27.4749 30.8353C28.2876 30.0222 28.2877 28.6991 27.4747 27.8856L18.9799 19.3908C18.1666 18.5776 16.8435 18.5779 16.0302 19.3908L0.611031 34.8102C0.21702 35.204 0 35.7279 0 36.2851C0 36.8423 0.216859 37.366 0.610871 37.7602L9.10551 46.2545C9.49952 46.6487 10.0233 46.8657 10.5806 46.8657C11.1379 46.8657 11.6617 46.6487 12.0554 46.2548L12.3922 45.918L19.195 52.7209C19.4469 52.9728 19.6776 53.2411 19.8888 53.5219L13.2905 60.1203C11.5654 61.8454 11.5654 64.6525 13.2905 66.3779C14.1531 67.2403 15.2861 67.6716 16.4191 67.6716C16.4628 67.6716 16.5064 67.6699 16.5501 67.6686C16.5488 67.7128 16.5469 67.757 16.5469 67.8015C16.5469 68.9834 17.0071 70.0945 17.8429 70.9303C18.6787 71.7659 19.7898 72.2263 20.9717 72.2263C21.0162 72.2263 21.0602 72.2244 21.1046 72.2231C21.0701 73.3993 21.4996 74.587 22.3955 75.4827C23.2311 76.3185 24.3422 76.7789 25.5241 76.7789C26.0908 76.7789 26.6407 76.672 27.1522 76.4698C27.3273 77.2663 27.7228 78.0238 28.341 78.6422C29.2036 79.5047 30.3366 79.936 31.4696 79.936C32.6026 79.936 33.7358 79.5047 34.5984 78.6421L35.5483 77.6922L38.6964 80.8401C39.6423 81.7861 40.8999 82.307 42.2374 82.307C43.575 82.307 44.8328 81.7861 45.7782 80.8402C46.724 79.8945 47.2449 78.6369 47.2451 77.2994C47.2451 77.1699 47.2402 77.0411 47.2304 76.9133C48.6395 77.0208 50.0814 76.5371 51.1553 75.4634C52.2296 74.389 52.7127 72.9439 52.6048 71.536C54.0129 71.6444 55.4577 71.1608 56.5322 70.0865C57.6057 69.0128 58.0891 67.5689 57.9821 66.162C58.1391 66.1739 58.298 66.1787 58.4574 66.1755C59.8283 66.1512 61.099 65.5841 62.035 64.579C63.8501 62.6305 63.7648 59.4832 61.8447 57.563L58.0981 53.8164L68.1863 43.7282L68.9443 44.4862C69.3383 44.8804 69.8621 45.0974 70.4194 45.0974C70.9767 45.0974 71.5005 44.8804 71.8943 44.4865L80.3888 35.9919C80.783 35.5979 81 35.0741 81 34.5168C81 33.9595 80.7828 33.4357 80.389 33.0419ZM14.9956 64.6729C14.2106 63.8878 14.2106 62.6104 14.9956 61.8254L22.4558 54.3653C22.8372 53.984 23.3407 53.7756 23.8783 53.7756C23.8936 53.7756 23.9088 53.7758 23.9243 53.7761C24.4786 53.7883 24.991 54.0212 25.3672 54.4321C26.0829 55.2139 26.0223 56.4925 25.2325 57.2831L17.843 64.6727C17.0579 65.4579 15.7804 65.4575 14.9956 64.6729ZM22.3948 69.2257C22.0147 69.6055 21.5092 69.8148 20.9717 69.8148C20.4339 69.8148 19.9282 69.6054 19.548 69.2252C19.1677 68.8448 18.9584 68.3391 18.9584 67.8015C18.9584 67.2636 19.1678 66.7582 19.548 66.378L27.8515 58.0745C28.2322 57.6939 28.737 57.4849 29.2747 57.4849H29.2911C29.8348 57.4891 30.3427 57.7066 30.7212 58.0972C31.4817 58.882 31.4717 60.1492 30.699 60.9218L22.3956 69.2252C22.3952 69.2252 22.395 69.2255 22.3948 69.2257ZM28.341 72.3843L26.9479 73.7774C26.5676 74.1578 26.062 74.3673 25.5243 74.3673C24.9865 74.3673 24.481 74.1578 24.1006 73.7774C23.7203 73.3973 23.511 72.8915 23.511 72.354C23.511 71.8161 23.7204 71.3105 24.1006 70.9303L30.9194 64.1115C31.2999 63.732 31.804 63.5233 32.3409 63.5233C32.3462 63.5233 32.3517 63.5233 32.3572 63.5235C32.901 63.5277 33.4088 63.745 33.7873 64.1357C34.5478 64.9205 34.538 66.1879 33.7652 66.9604L28.341 72.3843C28.341 72.3843 28.341 72.3842 28.341 72.3843ZM36.524 73.3063L32.8935 76.9368C32.1085 77.7219 30.831 77.7217 30.0462 76.9369C29.2617 76.1523 29.2612 74.8762 30.0447 74.0909L33.6775 70.4582C34.062 70.0741 34.5733 69.8688 35.1162 69.8692C35.6599 69.8733 36.1677 70.0908 36.5461 70.4815C37.3067 71.2661 37.2967 72.5334 36.524 73.3063ZM60.1394 59.2683C61.152 60.2809 61.2108 61.9259 60.2703 62.9356C59.7841 63.4576 59.125 63.7519 58.4143 63.7646C57.6985 63.7725 57.0347 63.5071 56.5321 63.0044C56.061 62.5337 55.2978 62.5337 54.8269 63.0044C54.5916 63.2399 54.4739 63.5486 54.4739 63.8571C54.4739 64.1657 54.5916 64.4742 54.8269 64.7097C55.8394 65.722 55.8394 67.3691 54.8269 68.3814C53.8146 69.394 52.1675 69.394 51.1553 68.3814C50.6843 67.9107 49.921 67.9107 49.4501 68.3814C49.2148 68.6169 49.0971 68.9255 49.0971 69.234C49.0971 69.5425 49.2148 69.8512 49.4501 70.0867C50.4626 71.0989 50.4626 72.746 49.4501 73.7583C48.4382 74.7707 46.7909 74.7711 45.7783 73.7585C45.3076 73.2878 44.5442 73.2878 44.0733 73.7585C43.6025 74.2295 43.6025 74.9928 44.0733 75.4634C44.5638 75.9539 44.8337 76.6058 44.8337 77.2994C44.8337 77.9928 44.5635 78.6448 44.0732 79.1353C43.5829 79.6257 42.931 79.8956 42.2374 79.8956C41.544 79.8956 40.892 79.6256 40.4015 79.1351L37.2535 75.987L38.2291 75.0114C39.9275 73.313 39.9493 70.5281 38.2778 68.8033C37.7119 68.2193 37.0141 67.8121 36.2495 67.6081C37.1171 65.9588 36.8767 63.8585 35.5189 62.4574C34.917 61.8364 34.166 61.416 33.3441 61.2266C34.012 59.6372 33.718 57.7244 32.4527 56.4186C31.6211 55.5605 30.5049 55.0827 29.3101 55.0734C29.298 55.0734 29.2863 55.0734 29.2742 55.0734C28.9254 55.0734 28.5831 55.1144 28.2521 55.1923C28.1412 54.3264 27.7747 53.4904 27.146 52.8038C26.3211 51.903 25.196 51.3921 23.9776 51.3654C23.1689 51.3469 22.3921 51.5451 21.7089 51.9317C21.4599 51.612 21.1905 51.3059 20.9005 51.0158L14.0976 44.2129L19.525 38.7856C19.9959 38.3146 19.9959 37.5514 19.525 37.0805C19.0543 36.6098 18.2909 36.6098 17.8201 37.0805L10.5809 44.3195L2.54653 36.2851L17.5056 21.3262L25.54 29.3606L21.7986 33.1018C21.3277 33.5728 21.3277 34.3361 21.7986 34.807C22.2694 35.2776 23.0329 35.2776 23.5036 34.807L25.2822 33.0284L31.706 39.4523L30.3924 40.7658C29.4465 41.7117 28.9257 42.9693 28.9257 44.3068C28.9257 45.6443 29.4465 46.902 30.3924 47.8478C31.3383 48.7935 32.5957 49.3143 33.9334 49.3143C35.271 49.3143 36.5286 48.7935 37.4743 47.8478L40.9725 44.3496C41.9339 43.3882 43.4609 43.2262 44.6024 43.9642C44.6042 43.9653 44.6061 43.9663 44.6079 43.9676L60.1394 59.2683ZM56.393 52.1113L48.9039 44.6222C48.9185 44.6182 48.9333 44.6151 48.9479 44.6108L55.2082 42.8216C55.8485 42.6386 56.2192 41.9713 56.0361 41.3312C55.853 40.6908 55.1856 40.3196 54.5458 40.5033L48.2853 42.2925C47.4798 42.5227 46.6146 42.394 45.9109 41.9392C43.8216 40.5887 41.0272 40.8846 39.2671 42.6446L35.7689 46.1429C35.2786 46.6332 34.6266 46.9032 33.9331 46.9032C33.2396 46.9032 32.5875 46.6331 32.0972 46.1428C31.085 45.1305 31.085 43.4834 32.0972 42.4711L37.0813 37.4871C38.8824 35.686 41.5757 35.1301 43.9428 36.0708C47.2055 37.3675 50.9177 36.6013 53.4002 34.1189L55.9885 31.5306L66.4812 42.0231L56.393 52.1113Z" fill="#151515"/>
</svg>
