<svg width="27" height="27" viewBox="0 0 27 27" fill="none" xmlns="http://www.w3.org/2000/svg">
<path d="M0 13.5C0 6.04416 6.04416 0 13.5 0C20.9558 0 27 6.04416 27 13.5C27 20.9558 20.9558 27 13.5 27C6.04416 27 0 20.9558 0 13.5Z" fill="#FFC700"/>
<path d="M13.0001 7.00015C10.2386 7.00015 8 9.23915 8 12.0002C8 15.077 12.3952 20.1491 12.3952 20.1491C12.7277 20.5324 13.272 20.5324 13.6043 20.1491C13.6043 20.1491 18 15.077 18 12.0002C18.0002 9.23905 15.7618 7.00015 13.0002 7.00015H13.0001ZM13.0001 14.1117C11.8341 14.1117 10.8886 13.1662 10.8886 12.0002C10.8886 10.8341 11.8341 9.8892 13.0001 9.8892C14.1665 9.8892 15.1115 10.8343 15.1115 12.0002C15.1115 13.1661 14.1665 14.1117 13.0001 14.1117Z" fill="#151515"/>
</svg>
