<svg width="27" height="27" viewBox="0 0 27 27" fill="none" xmlns="http://www.w3.org/2000/svg">
<path d="M0 13.5C0 6.04416 6.04416 0 13.5 0C20.9558 0 27 6.04416 27 13.5C27 20.9558 20.9558 27 13.5 27C6.04416 27 0 20.9558 0 13.5Z" fill="#FFC700"/>
<path d="M16.3031 20.1843C16.8204 20.1844 17.3267 20.0357 17.7618 19.7559C18.1969 19.4762 18.5423 19.0772 18.757 18.6065C18.9716 18.1359 19.0463 17.6135 18.9722 17.1016C18.8981 16.5896 18.6783 16.1098 18.3391 15.7193C17.9999 15.3288 17.5555 15.0442 17.0589 14.8993C16.5624 14.7543 16.0347 14.7553 15.5386 14.902C15.0426 15.0487 14.5993 15.335 14.2615 15.7267C13.9237 16.1185 13.7056 16.5991 13.6334 17.1113C12.0431 16.288 10.7548 14.9818 9.9536 13.3803C10.3321 13.3448 10.6988 13.2296 11.0295 13.0423C11.3603 12.855 11.6477 12.5997 11.8727 12.2934C12.2652 11.7993 12.4638 11.1788 12.4313 10.5486C12.3988 9.91843 12.1373 9.32177 11.696 8.87067C11.5926 8.7609 11.4792 8.66096 11.3573 8.57215C10.9592 8.26092 10.4817 8.06782 9.97912 8.01485C9.47659 7.96189 8.96928 8.0512 8.51505 8.2726C8.06082 8.494 7.67794 8.83858 7.41006 9.26705C7.14219 9.69552 7.0001 10.1906 7 10.696C6.99998 10.7884 7.00486 10.8807 7.01462 10.9726C6.98511 11.2443 7.002 11.5192 7.06458 11.7853C7.1584 12.1789 7.28391 12.5651 7.41428 12.9489C7.66545 13.7469 8.02808 14.5054 8.49142 15.2019C8.94446 15.8435 9.45158 16.4452 10.0072 17.0004C10.6883 17.7103 11.4525 18.3354 12.2833 18.8622C13.157 19.3971 14.1196 19.7152 15.0944 20.0064C15.309 20.069 15.5295 20.1098 15.7524 20.1282C15.9336 20.1655 16.1181 20.1843 16.3031 20.1843Z" fill="#151515"/>
</svg>
