<svg width="76" height="76" viewBox="0 0 76 76" fill="none" xmlns="http://www.w3.org/2000/svg">
<circle cx="18.2758" cy="57.279" r="16.7666" fill="#FFC700"/>
<path d="M67.9787 13.9266H65.2545L59.6283 2.1232C59.4795 1.81564 59.214 1.57962 58.8909 1.46767C58.5677 1.35573 58.2134 1.37708 57.9058 1.52711L49.0349 5.75272L45.3973 0.557604C45.2005 0.277167 44.9004 0.0867371 44.5634 0.0278842C44.2299 -0.0430922 43.882 0.0226909 43.5975 0.21081L23.9488 13.9266H14.6758C10.3988 13.9266 6.98966 17.4696 6.98966 21.7467V42.846C2.62725 46.2651 0 51.4987 0 57.3552C0.00288518 62.2912 1.96604 67.0235 5.45762 70.5123C8.94876 74.0011 13.6828 75.9602 18.6188 75.9596C24.1718 75.9855 29.4372 73.4944 32.9382 69.184H67.9796C70.0211 69.1932 71.9814 68.3854 73.4239 66.9409C74.8659 65.496 75.6703 63.5346 75.6582 61.4931V21.7467C75.6582 17.4697 72.256 13.9266 67.9796 13.9266L67.9787 13.9266ZM62.3924 13.9266H37.7433L57.8484 4.36903L62.3924 13.9266ZM44.0201 3.07069L46.667 6.83822L31.7233 13.9266H28.4595L44.0201 3.07069ZM18.6014 73.406C14.3446 73.406 10.2614 71.7147 7.25154 68.7049C4.24109 65.6944 2.55041 61.6118 2.55041 57.355C2.55041 53.0976 4.24109 49.015 7.25154 46.0046C10.262 42.9947 14.3446 41.3034 18.6014 41.3034C22.8588 41.3034 26.9414 42.9947 29.9512 46.0052C32.9617 49.015 34.6524 53.0982 34.6524 57.355C34.6478 61.6108 32.9553 65.6904 29.9461 68.6997C26.9368 71.7084 22.8571 73.4014 18.6014 73.406ZM67.9792 66.5986H34.7416C36.3792 63.7822 37.2408 60.5813 37.2374 57.3227C37.2391 52.3872 35.2806 47.6532 31.7925 44.1609C28.3037 40.6691 23.5714 38.706 18.636 38.7026C15.4581 38.6905 12.3329 39.5157 9.57463 41.0944V21.7457C9.57463 18.8945 11.825 16.5107 14.6757 16.5107H67.9785C70.8303 16.5107 73.0726 18.8939 73.0726 21.7457V27.4977H59.3742C57.3137 27.5 55.3379 28.3177 53.8785 29.7723C52.4186 31.2265 51.5934 33.1994 51.5836 35.2595V47.977C51.5923 50.0411 52.4157 52.0179 53.8751 53.4779C55.3339 54.9378 57.3103 55.763 59.3744 55.7728H73.0727V61.4924C73.086 62.8485 72.554 64.1526 71.5961 65.1128C70.6382 66.0725 69.3352 66.6079 67.9792 66.5982L67.9792 66.5986ZM73.0727 30.083V53.1884H59.3744C57.9958 53.1791 56.6761 52.6269 55.7021 51.6517C54.7275 50.6765 54.1771 49.3563 54.1689 47.9777V35.2603C54.1782 33.8852 54.7304 32.5695 55.7055 31.6001C56.6807 30.6301 57.9992 30.0854 59.3744 30.0836L73.0727 30.083Z" fill="#151515"/>
<path d="M57.4832 41.6204C57.4832 42.756 57.9344 43.845 58.7371 44.6481C59.5403 45.4508 60.6293 45.902 61.7648 45.902C62.9003 45.902 63.9894 45.4508 64.7919 44.6481C65.5952 43.8449 66.0464 42.7559 66.0464 41.6204C66.0464 40.4848 65.5952 39.3958 64.7919 38.5927C63.9893 37.79 62.9003 37.3387 61.7648 37.3387C60.6298 37.3399 59.5414 37.7917 58.7383 38.5944C57.9356 39.3971 57.4843 40.4854 57.4832 41.6203L57.4832 41.6204ZM61.7648 39.9239C62.4509 39.9239 63.0694 40.3371 63.3319 40.9713C63.5944 41.6054 63.4491 42.3348 62.9644 42.8202C62.4791 43.3055 61.7491 43.4503 61.1155 43.1877C60.4813 42.9252 60.0681 42.3066 60.0681 41.6206C60.0693 40.684 60.8281 39.9251 61.7646 39.9241L61.7648 39.9239Z" fill="#151515"/>
<rect x="11.1111" y="51.1481" width="14.3291" height="2.36357" fill="#151515"/>
<rect x="11.1111" y="56.6141" width="14.3291" height="2.36357" fill="#151515"/>
<rect x="11.1111" y="62.0798" width="14.3291" height="2.36357" fill="#151515"/>
</svg>
