<svg width="97" height="77" viewBox="0 0 97 77" fill="none" xmlns="http://www.w3.org/2000/svg">
<circle cx="17.5769" cy="17.5392" r="15.321" fill="#FFC700"/>
<path d="M35.291 64.3666C36.9451 64.3666 38.2996 65.7204 38.2998 67.3744C38.2998 69.0286 36.9452 70.3832 35.291 70.3832C33.637 70.383 32.2832 69.0284 32.2832 67.3744C32.2834 65.7205 33.6371 64.3668 35.291 64.3666Z" fill="#151515" stroke="white" stroke-width="0.4"/>
<path d="M76.9995 64.3666C78.6536 64.3666 80.0081 65.7204 80.0083 67.3744C80.0083 69.0286 78.6537 70.3832 76.9995 70.3832C75.3455 70.383 73.9917 69.0284 73.9917 67.3744C73.9919 65.7205 75.3456 64.3668 76.9995 64.3666Z" fill="#151515" stroke="white" stroke-width="0.4"/>
<path d="M68.9795 53.1377H72.1875C72.6233 53.1377 72.9708 53.2824 73.209 53.5205C73.447 53.7587 73.5918 54.1063 73.5918 54.542C73.5917 54.9776 73.4471 55.3254 73.209 55.5635C72.9708 55.8015 72.6232 55.9453 72.1875 55.9453H68.9795C68.5439 55.9453 68.1962 55.8014 67.958 55.5635C67.7199 55.3254 67.5753 54.9776 67.5752 54.542C67.5752 54.1062 67.7199 53.7587 67.958 53.5205C68.1962 53.2824 68.5437 53.1377 68.9795 53.1377Z" fill="#151515" stroke="white" stroke-width="0.4"/>
<path d="M25.6665 37.0961H48.1245C48.5603 37.0961 48.9079 37.2407 49.146 37.4789C49.384 37.717 49.5288 38.0647 49.5288 38.5004C49.5287 38.936 49.3841 39.2838 49.146 39.5219C48.9079 39.7599 48.5602 39.9037 48.1245 39.9037H25.6665C25.2309 39.9037 24.8832 39.7598 24.645 39.5219C24.4069 39.2838 24.2623 38.936 24.2622 38.5004C24.2622 38.0646 24.4069 37.717 24.645 37.4789C24.8832 37.2407 25.2307 37.0961 25.6665 37.0961Z" fill="#151515" stroke="white" stroke-width="0.4"/>
<mask id="path-6-inside-1_144_237" fill="white">
<path d="M94.1644 49.5686L87.9082 47.002L83.8978 30.9605C83.4166 28.7146 81.4916 27.2708 79.2457 27.2708H64.1666V22.4583C64.1666 20.6937 62.7229 19.25 60.9583 19.25H35.2191C35.2661 18.7217 35.2915 18.1869 35.2915 17.6459C35.2915 7.86052 27.4312 0 17.6457 0C7.86033 0 0 7.86034 0 17.6459C0 26.8902 7.01552 34.4151 16.0416 35.2191V46.5208V65.7707C16.0416 67.5354 17.4853 68.9791 19.25 68.9791H25.8038C26.5736 73.516 30.5443 77 35.2915 77C40.0388 77 44.0095 73.516 44.7793 68.9791H67.5121C68.2819 73.516 72.2526 77 76.9998 77C81.7471 77 85.7178 73.516 86.4876 68.9791H93.0414C94.806 68.9791 96.2498 67.5354 96.2498 65.7707V52.6167C96.2498 51.1727 95.4476 50.0499 94.1644 49.5686ZM60.9583 28.8749V30.479C60.9583 38.4999 54.5417 44.9165 46.5208 44.9165H19.25V35.2915C20.6287 35.1383 21.972 34.8319 23.2571 34.3888C25.7241 33.5688 27.9446 32.2217 29.7869 30.479H51.3333C52.2958 30.479 52.9374 29.8374 52.9374 28.8749C52.9374 27.9124 52.2958 27.2708 51.3333 27.2708H32.4832C33.4351 25.8143 34.1749 24.2002 34.6499 22.4583H60.9583V28.8749ZM3.20839 17.6459C3.20839 9.62498 9.62498 3.20839 17.6459 3.20839C25.6667 3.20839 32.0833 9.62498 32.0833 17.6459C32.0833 18.53 32.001 19.393 31.8515 20.2318C31.8141 20.3266 31.7837 20.4269 31.7624 20.5333C31.4193 22.3345 30.7413 23.9959 29.8038 25.4667C29.7506 25.5498 29.6994 25.6342 29.6446 25.716C29.6158 25.759 29.585 25.8006 29.5558 25.8434C29.4547 25.9906 29.3524 26.1371 29.246 26.2801C29.225 26.3085 29.203 26.3363 29.1815 26.3645C29.0652 26.5189 28.9464 26.6712 28.824 26.8204C28.8042 26.8447 28.7839 26.8685 28.7638 26.8926C28.6386 27.0434 28.5104 27.1917 28.3792 27.337C28.3585 27.3599 28.3377 27.3829 28.3166 27.4058C28.3125 27.4103 28.3081 27.4145 28.3042 27.419C27.9716 27.5675 27.7192 27.8222 27.5735 28.157C27.5212 28.2063 27.4705 28.2572 27.4175 28.3057C27.396 28.3253 27.3752 28.3456 27.3537 28.3649C27.1994 28.5046 27.0417 28.6407 26.8813 28.7736C26.8682 28.7843 26.8558 28.7958 26.8426 28.8065C26.6717 28.9471 26.4973 29.0838 26.3198 29.2165C26.2572 29.2631 26.1927 29.3071 26.1294 29.3528C26.0222 29.4302 25.9149 29.5079 25.8055 29.5825C25.6983 29.6553 25.5891 29.7252 25.4799 29.7951C25.4131 29.838 25.3468 29.8814 25.2793 29.9233C25.1537 30.001 25.0264 30.076 24.8984 30.1497C24.8473 30.1792 24.7962 30.2087 24.7446 30.2377C24.6042 30.3162 24.4625 30.3927 24.3192 30.4668C24.282 30.4862 24.2446 30.505 24.207 30.524C24.0504 30.6031 23.8925 30.6804 23.7327 30.7541C23.7164 30.7616 23.6998 30.7687 23.6835 30.7762C22.7984 31.1799 21.8664 31.4955 20.9001 31.716C20.8486 31.7276 20.7973 31.7402 20.7454 31.7513C20.6006 31.7827 20.4546 31.8107 20.3083 31.8378C20.2275 31.8527 20.1465 31.8673 20.0653 31.8809C19.9357 31.9025 19.8058 31.9224 19.6754 31.9406C19.5707 31.9551 19.4654 31.9681 19.3599 31.9803C19.246 31.9937 19.1321 32.007 19.0174 32.0177C18.8821 32.0303 18.7458 32.0395 18.6095 32.0484C18.5198 32.0542 18.4305 32.0617 18.3403 32.066C18.11 32.0767 17.8786 32.0833 17.6455 32.0833C9.62498 32.0833 3.20839 25.6665 3.20839 17.6459ZM35.2915 73.7914C31.7624 73.7914 28.8749 70.9039 28.8749 67.3748C28.8749 63.8457 31.7624 60.9583 35.2915 60.9583C38.8206 60.9583 41.7081 63.8457 41.7081 67.3748C41.7083 70.9039 38.8208 73.7914 35.2915 73.7914ZM76.9998 73.7914C73.4707 73.7914 70.5832 70.9039 70.5832 67.3748C70.5832 63.8457 73.4707 60.9583 76.9998 60.9583C80.5289 60.9583 83.4164 63.8457 83.4164 67.3748C83.4164 70.9039 80.5289 73.7914 76.9998 73.7914ZM93.0414 65.7707H86.4876C85.946 62.5787 83.8196 59.9098 80.9525 58.6073C80.8889 58.5781 80.8257 58.5482 80.7613 58.5204C80.721 58.5031 80.6801 58.4875 80.6395 58.4708C80.5355 58.4277 80.431 58.3856 80.3251 58.3463C80.2966 58.3358 80.2676 58.326 80.2388 58.3157C80.1214 58.2732 80.0027 58.2326 79.883 58.1946C79.857 58.1864 79.8311 58.1787 79.805 58.1708C79.6832 58.1334 79.5602 58.098 79.4361 58.0655C79.4087 58.0583 79.3812 58.0512 79.3536 58.0443C79.2318 58.0134 79.109 57.9848 78.9852 57.9587C78.9539 57.9521 78.9229 57.9454 78.8917 57.9392C78.7722 57.9151 78.6517 57.8937 78.5304 57.8741C78.4945 57.8683 78.4588 57.8621 78.4227 57.8566C78.306 57.8392 78.1881 57.8247 78.0698 57.8115C78.0298 57.807 77.99 57.8017 77.9497 57.7976C77.8315 57.786 77.7123 57.7775 77.5927 57.7702C77.5533 57.7677 77.5143 57.764 77.4747 57.7621C77.3173 57.7544 77.1589 57.7499 76.9993 57.7499C76.8396 57.7499 76.6812 57.7544 76.5238 57.7621C76.4844 57.764 76.4453 57.7677 76.4058 57.7702C76.2862 57.7775 76.167 57.786 76.0488 57.7976C76.0086 57.8016 75.9687 57.807 75.9287 57.8115C75.8104 57.8247 75.6926 57.8393 75.5758 57.8566C75.5397 57.8621 75.504 57.8683 75.4679 57.8741C75.3466 57.8937 75.2263 57.9151 75.1068 57.939C75.0754 57.9454 75.0444 57.952 75.0132 57.9585C74.8895 57.9847 74.7667 58.0132 74.6449 58.0441C74.6174 58.051 74.5898 58.058 74.5624 58.0653C74.4383 58.098 74.3154 58.1332 74.1935 58.1708C74.1676 58.1787 74.1416 58.1864 74.1157 58.1946C73.9958 58.2326 73.8773 58.2732 73.7597 58.3157C73.7311 58.326 73.7023 58.3358 73.6738 58.3463C73.5677 58.3858 73.463 58.4279 73.3589 58.4712C73.3185 58.4879 73.2777 58.5035 73.2376 58.5206C73.1731 58.5484 73.1098 58.5785 73.0461 58.6077C70.1792 59.9104 68.0529 62.5791 67.5115 65.7709H44.7793C44.2377 62.5791 42.1117 59.9106 39.2451 58.6078C39.1812 58.5785 39.1178 58.5484 39.0532 58.5206C39.0131 58.5035 38.9723 58.4879 38.9319 58.4712C38.8278 58.4281 38.723 58.386 38.617 58.3463C38.5886 58.3358 38.5597 58.326 38.5311 58.3157C38.4134 58.2732 38.2948 58.2326 38.1751 58.1946C38.1493 58.1866 38.1232 58.1788 38.0972 58.1708C37.9754 58.1334 37.8525 58.098 37.7284 58.0653C37.701 58.0582 37.6735 58.051 37.6459 58.0441C37.5241 58.0132 37.4013 57.9847 37.2774 57.9585C37.2462 57.952 37.2152 57.9452 37.184 57.939C37.0644 57.9149 36.9439 57.8935 36.8227 57.8739C36.7868 57.8681 36.7511 57.8619 36.715 57.8565C36.5982 57.839 36.4804 57.8245 36.3621 57.8113C36.3221 57.8068 36.2822 57.8016 36.242 57.7974C36.1237 57.7858 36.0046 57.7773 35.885 57.77C35.8455 57.7675 35.8066 57.7638 35.7669 57.7619C35.6096 57.7542 35.4511 57.7497 35.2915 57.7497C35.1319 57.7497 34.9734 57.7542 34.8161 57.7619C34.7766 57.7638 34.7375 57.7675 34.698 57.77C34.5785 57.7773 34.4593 57.7858 34.3411 57.7974C34.3008 57.8014 34.261 57.8068 34.2209 57.8113C34.1027 57.8245 33.9848 57.8392 33.8681 57.8565C33.832 57.8619 33.7963 57.8681 33.7604 57.8739C33.6391 57.8935 33.5186 57.9149 33.399 57.939C33.3678 57.9452 33.3366 57.952 33.3056 57.9585C33.1817 57.9847 33.059 58.0132 32.9372 58.0441C32.9097 58.051 32.8821 58.058 32.8546 58.0653C32.7306 58.098 32.6078 58.1332 32.4858 58.1706C32.4599 58.1785 32.4337 58.1862 32.4078 58.1945C32.288 58.2324 32.1696 58.273 32.0519 58.3155C32.0232 58.3259 31.9942 58.3356 31.9656 58.3462C31.8598 58.3856 31.7553 58.4276 31.6513 58.4706C31.6107 58.4873 31.5697 58.5029 31.5295 58.5202C31.4652 58.5481 31.4021 58.5779 31.3383 58.6071C28.4711 59.9097 26.3448 62.5785 25.8032 65.7706H19.25V48.1249H46.5208C56.3061 48.1249 64.1666 40.2645 64.1666 30.479H79.2457C80.0479 30.479 80.6895 31.1206 80.8498 31.7624L84.5043 46.5208H72.6686C71.5457 46.5208 70.5832 45.5583 70.5832 44.4354V36.8958C70.5832 35.9333 69.9416 35.2917 68.9791 35.2917C68.0166 35.2917 67.375 35.9333 67.375 36.8958V44.4354C67.375 47.3229 69.7813 49.7292 72.6688 49.7292H85.9834L93.0418 52.4563V65.7707H93.0414Z"/>
</mask>
<path d="M94.1644 49.5686L87.9082 47.002L83.8978 30.9605C83.4166 28.7146 81.4916 27.2708 79.2457 27.2708H64.1666V22.4583C64.1666 20.6937 62.7229 19.25 60.9583 19.25H35.2191C35.2661 18.7217 35.2915 18.1869 35.2915 17.6459C35.2915 7.86052 27.4312 0 17.6457 0C7.86033 0 0 7.86034 0 17.6459C0 26.8902 7.01552 34.4151 16.0416 35.2191V46.5208V65.7707C16.0416 67.5354 17.4853 68.9791 19.25 68.9791H25.8038C26.5736 73.516 30.5443 77 35.2915 77C40.0388 77 44.0095 73.516 44.7793 68.9791H67.5121C68.2819 73.516 72.2526 77 76.9998 77C81.7471 77 85.7178 73.516 86.4876 68.9791H93.0414C94.806 68.9791 96.2498 67.5354 96.2498 65.7707V52.6167C96.2498 51.1727 95.4476 50.0499 94.1644 49.5686ZM60.9583 28.8749V30.479C60.9583 38.4999 54.5417 44.9165 46.5208 44.9165H19.25V35.2915C20.6287 35.1383 21.972 34.8319 23.2571 34.3888C25.7241 33.5688 27.9446 32.2217 29.7869 30.479H51.3333C52.2958 30.479 52.9374 29.8374 52.9374 28.8749C52.9374 27.9124 52.2958 27.2708 51.3333 27.2708H32.4832C33.4351 25.8143 34.1749 24.2002 34.6499 22.4583H60.9583V28.8749ZM3.20839 17.6459C3.20839 9.62498 9.62498 3.20839 17.6459 3.20839C25.6667 3.20839 32.0833 9.62498 32.0833 17.6459C32.0833 18.53 32.001 19.393 31.8515 20.2318C31.8141 20.3266 31.7837 20.4269 31.7624 20.5333C31.4193 22.3345 30.7413 23.9959 29.8038 25.4667C29.7506 25.5498 29.6994 25.6342 29.6446 25.716C29.6158 25.759 29.585 25.8006 29.5558 25.8434C29.4547 25.9906 29.3524 26.1371 29.246 26.2801C29.225 26.3085 29.203 26.3363 29.1815 26.3645C29.0652 26.5189 28.9464 26.6712 28.824 26.8204C28.8042 26.8447 28.7839 26.8685 28.7638 26.8926C28.6386 27.0434 28.5104 27.1917 28.3792 27.337C28.3585 27.3599 28.3377 27.3829 28.3166 27.4058C28.3125 27.4103 28.3081 27.4145 28.3042 27.419C27.9716 27.5675 27.7192 27.8222 27.5735 28.157C27.5212 28.2063 27.4705 28.2572 27.4175 28.3057C27.396 28.3253 27.3752 28.3456 27.3537 28.3649C27.1994 28.5046 27.0417 28.6407 26.8813 28.7736C26.8682 28.7843 26.8558 28.7958 26.8426 28.8065C26.6717 28.9471 26.4973 29.0838 26.3198 29.2165C26.2572 29.2631 26.1927 29.3071 26.1294 29.3528C26.0222 29.4302 25.9149 29.5079 25.8055 29.5825C25.6983 29.6553 25.5891 29.7252 25.4799 29.7951C25.4131 29.838 25.3468 29.8814 25.2793 29.9233C25.1537 30.001 25.0264 30.076 24.8984 30.1497C24.8473 30.1792 24.7962 30.2087 24.7446 30.2377C24.6042 30.3162 24.4625 30.3927 24.3192 30.4668C24.282 30.4862 24.2446 30.505 24.207 30.524C24.0504 30.6031 23.8925 30.6804 23.7327 30.7541C23.7164 30.7616 23.6998 30.7687 23.6835 30.7762C22.7984 31.1799 21.8664 31.4955 20.9001 31.716C20.8486 31.7276 20.7973 31.7402 20.7454 31.7513C20.6006 31.7827 20.4546 31.8107 20.3083 31.8378C20.2275 31.8527 20.1465 31.8673 20.0653 31.8809C19.9357 31.9025 19.8058 31.9224 19.6754 31.9406C19.5707 31.9551 19.4654 31.9681 19.3599 31.9803C19.246 31.9937 19.1321 32.007 19.0174 32.0177C18.8821 32.0303 18.7458 32.0395 18.6095 32.0484C18.5198 32.0542 18.4305 32.0617 18.3403 32.066C18.11 32.0767 17.8786 32.0833 17.6455 32.0833C9.62498 32.0833 3.20839 25.6665 3.20839 17.6459ZM35.2915 73.7914C31.7624 73.7914 28.8749 70.9039 28.8749 67.3748C28.8749 63.8457 31.7624 60.9583 35.2915 60.9583C38.8206 60.9583 41.7081 63.8457 41.7081 67.3748C41.7083 70.9039 38.8208 73.7914 35.2915 73.7914ZM76.9998 73.7914C73.4707 73.7914 70.5832 70.9039 70.5832 67.3748C70.5832 63.8457 73.4707 60.9583 76.9998 60.9583C80.5289 60.9583 83.4164 63.8457 83.4164 67.3748C83.4164 70.9039 80.5289 73.7914 76.9998 73.7914ZM93.0414 65.7707H86.4876C85.946 62.5787 83.8196 59.9098 80.9525 58.6073C80.8889 58.5781 80.8257 58.5482 80.7613 58.5204C80.721 58.5031 80.6801 58.4875 80.6395 58.4708C80.5355 58.4277 80.431 58.3856 80.3251 58.3463C80.2966 58.3358 80.2676 58.326 80.2388 58.3157C80.1214 58.2732 80.0027 58.2326 79.883 58.1946C79.857 58.1864 79.8311 58.1787 79.805 58.1708C79.6832 58.1334 79.5602 58.098 79.4361 58.0655C79.4087 58.0583 79.3812 58.0512 79.3536 58.0443C79.2318 58.0134 79.109 57.9848 78.9852 57.9587C78.9539 57.9521 78.9229 57.9454 78.8917 57.9392C78.7722 57.9151 78.6517 57.8937 78.5304 57.8741C78.4945 57.8683 78.4588 57.8621 78.4227 57.8566C78.306 57.8392 78.1881 57.8247 78.0698 57.8115C78.0298 57.807 77.99 57.8017 77.9497 57.7976C77.8315 57.786 77.7123 57.7775 77.5927 57.7702C77.5533 57.7677 77.5143 57.764 77.4747 57.7621C77.3173 57.7544 77.1589 57.7499 76.9993 57.7499C76.8396 57.7499 76.6812 57.7544 76.5238 57.7621C76.4844 57.764 76.4453 57.7677 76.4058 57.7702C76.2862 57.7775 76.167 57.786 76.0488 57.7976C76.0086 57.8016 75.9687 57.807 75.9287 57.8115C75.8104 57.8247 75.6926 57.8393 75.5758 57.8566C75.5397 57.8621 75.504 57.8683 75.4679 57.8741C75.3466 57.8937 75.2263 57.9151 75.1068 57.939C75.0754 57.9454 75.0444 57.952 75.0132 57.9585C74.8895 57.9847 74.7667 58.0132 74.6449 58.0441C74.6174 58.051 74.5898 58.058 74.5624 58.0653C74.4383 58.098 74.3154 58.1332 74.1935 58.1708C74.1676 58.1787 74.1416 58.1864 74.1157 58.1946C73.9958 58.2326 73.8773 58.2732 73.7597 58.3157C73.7311 58.326 73.7023 58.3358 73.6738 58.3463C73.5677 58.3858 73.463 58.4279 73.3589 58.4712C73.3185 58.4879 73.2777 58.5035 73.2376 58.5206C73.1731 58.5484 73.1098 58.5785 73.0461 58.6077C70.1792 59.9104 68.0529 62.5791 67.5115 65.7709H44.7793C44.2377 62.5791 42.1117 59.9106 39.2451 58.6078C39.1812 58.5785 39.1178 58.5484 39.0532 58.5206C39.0131 58.5035 38.9723 58.4879 38.9319 58.4712C38.8278 58.4281 38.723 58.386 38.617 58.3463C38.5886 58.3358 38.5597 58.326 38.5311 58.3157C38.4134 58.2732 38.2948 58.2326 38.1751 58.1946C38.1493 58.1866 38.1232 58.1788 38.0972 58.1708C37.9754 58.1334 37.8525 58.098 37.7284 58.0653C37.701 58.0582 37.6735 58.051 37.6459 58.0441C37.5241 58.0132 37.4013 57.9847 37.2774 57.9585C37.2462 57.952 37.2152 57.9452 37.184 57.939C37.0644 57.9149 36.9439 57.8935 36.8227 57.8739C36.7868 57.8681 36.7511 57.8619 36.715 57.8565C36.5982 57.839 36.4804 57.8245 36.3621 57.8113C36.3221 57.8068 36.2822 57.8016 36.242 57.7974C36.1237 57.7858 36.0046 57.7773 35.885 57.77C35.8455 57.7675 35.8066 57.7638 35.7669 57.7619C35.6096 57.7542 35.4511 57.7497 35.2915 57.7497C35.1319 57.7497 34.9734 57.7542 34.8161 57.7619C34.7766 57.7638 34.7375 57.7675 34.698 57.77C34.5785 57.7773 34.4593 57.7858 34.3411 57.7974C34.3008 57.8014 34.261 57.8068 34.2209 57.8113C34.1027 57.8245 33.9848 57.8392 33.8681 57.8565C33.832 57.8619 33.7963 57.8681 33.7604 57.8739C33.6391 57.8935 33.5186 57.9149 33.399 57.939C33.3678 57.9452 33.3366 57.952 33.3056 57.9585C33.1817 57.9847 33.059 58.0132 32.9372 58.0441C32.9097 58.051 32.8821 58.058 32.8546 58.0653C32.7306 58.098 32.6078 58.1332 32.4858 58.1706C32.4599 58.1785 32.4337 58.1862 32.4078 58.1945C32.288 58.2324 32.1696 58.273 32.0519 58.3155C32.0232 58.3259 31.9942 58.3356 31.9656 58.3462C31.8598 58.3856 31.7553 58.4276 31.6513 58.4706C31.6107 58.4873 31.5697 58.5029 31.5295 58.5202C31.4652 58.5481 31.4021 58.5779 31.3383 58.6071C28.4711 59.9097 26.3448 62.5785 25.8032 65.7706H19.25V48.1249H46.5208C56.3061 48.1249 64.1666 40.2645 64.1666 30.479H79.2457C80.0479 30.479 80.6895 31.1206 80.8498 31.7624L84.5043 46.5208H72.6686C71.5457 46.5208 70.5832 45.5583 70.5832 44.4354V36.8958C70.5832 35.9333 69.9416 35.2917 68.9791 35.2917C68.0166 35.2917 67.375 35.9333 67.375 36.8958V44.4354C67.375 47.3229 69.7813 49.7292 72.6688 49.7292H85.9834L93.0418 52.4563V65.7707H93.0414Z" fill="#151515" stroke="white" stroke-width="0.8" mask="url(#path-6-inside-1_144_237)"/>
<path d="M22.4574 19.2498C23.4199 19.2498 24.0615 18.6082 24.0615 17.6457C24.0615 16.6832 23.4199 16.0416 22.4574 16.0416H19.249V8.02073C19.249 7.05823 18.6074 6.41663 17.6449 6.41663C16.6824 6.41663 16.0408 7.05823 16.0408 8.02073V17.6457C16.0408 18.6082 16.6824 19.2498 17.6449 19.2498H22.4574Z" fill="#151515"/>
</svg>
