<svg width="39" height="29" viewBox="0 0 39 29" fill="none" xmlns="http://www.w3.org/2000/svg">
<path d="M14.9176 22.7632C14.173 22.7632 13.4588 23.059 12.9323 23.5854C12.4057 24.112 12.109 24.8262 12.109 25.5708C12.109 26.3155 12.4057 27.0296 12.9323 27.5562C13.4588 28.0826 14.173 28.3784 14.9176 28.3784C15.6622 28.3783 16.3765 28.0826 16.903 27.5562C17.4294 27.0296 17.7252 26.3154 17.7252 25.5708C17.7252 24.8262 17.4294 24.112 16.903 23.5854C16.3765 23.059 15.6622 22.7633 14.9176 22.7632ZM5.61487 22.7632C4.87023 22.7632 4.15606 23.0589 3.62952 23.5854C3.10298 24.112 2.80728 24.8262 2.80725 25.5708C2.80725 26.3154 3.10301 27.0296 3.62952 27.5562C4.15606 28.0827 4.87023 28.3784 5.61487 28.3784C6.35954 28.3784 7.07366 28.0827 7.60022 27.5562C8.12678 27.0296 8.42249 26.3155 8.42249 25.5708C8.42246 24.8262 8.12676 24.112 7.60022 23.5854C7.07366 23.0589 6.3595 22.7632 5.61487 22.7632ZM21.4117 6.81592C20.1427 6.81592 19.0449 7.69708 18.7692 8.93506L17.1041 16.4331C16.8588 17.5336 15.8835 18.3167 14.7555 18.3169H4.88928L3.04846 10.9487H12.8678C13.2349 10.932 13.5817 10.774 13.8356 10.5083C14.0893 10.2426 14.231 9.88937 14.2311 9.52197C14.2311 9.15441 14.0895 8.80043 13.8356 8.53467C13.5817 8.26899 13.2349 8.11199 12.8678 8.09521L12.861 8.09424H2.85608C2.44488 8.09414 2.03915 8.1884 1.66956 8.36865C1.29996 8.54893 0.976354 8.81114 0.723267 9.13525C0.470161 9.45943 0.293871 9.83739 0.208618 10.2397C0.123448 10.642 0.131228 11.0587 0.231079 11.4575L2.14709 19.1226C2.29339 19.708 2.63143 20.2277 3.10706 20.5991C3.58265 20.9704 4.16872 21.1724 4.77209 21.1724H14.7555C15.9525 21.1724 17.1137 20.7641 18.0475 20.0151C18.9813 19.2661 19.6316 18.2208 19.8912 17.0522L21.5319 9.67139H22.9459C23.3166 9.65943 23.6684 9.50423 23.9264 9.23779C24.1843 8.97137 24.3287 8.61448 24.3287 8.24365C24.3286 7.87301 24.1842 7.51681 23.9264 7.25049C23.6684 6.98406 23.3166 6.82787 22.9459 6.81592H21.4117Z" fill="#151515" stroke="#151515" stroke-width="0.3"/>
<circle cx="29.76" cy="8.54793" r="8.54793" fill="#FFC700"/>
</svg>
