<svg width="200" height="91" viewBox="0 0 200 91" fill="none" xmlns="http://www.w3.org/2000/svg">
<path d="M37.6309 53.7546L13.2371 77.7347C12.9146 78.0517 12.9102 78.5702 13.2272 78.8927L24.0822 89.9349C24.3992 90.2574 24.9177 90.2618 25.2402 89.9448L49.634 65.9647C49.9565 65.6477 49.9609 65.1292 49.6439 64.8067L38.7889 53.7645C38.4719 53.442 37.9534 53.4376 37.6309 53.7546Z" fill="#FFC700"/>
<path d="M37.966 0.574098L13.5722 24.5542C13.2497 24.8712 13.2453 25.3897 13.5623 25.7122L24.4173 36.7544C24.7343 37.0769 25.2528 37.0813 25.5753 36.7643L49.969 12.7842C50.2916 12.4672 50.296 11.9487 49.9789 11.6262L39.124 0.584002C38.807 0.261493 38.2885 0.25706 37.966 0.574098Z" fill="#151515"/>
<path d="M36.764 50.9064L12.784 26.5126C12.4669 26.1901 11.9485 26.1856 11.6259 26.5027L0.583738 37.3576C0.261229 37.6746 0.256795 38.1931 0.573834 38.5156L24.5539 62.9094C24.8709 63.2319 25.3894 63.2363 25.7119 62.9193L36.7541 52.0644C37.0766 51.7473 37.0811 51.2289 36.764 50.9064Z" fill="#151515"/>
<path d="M63.1839 51.2462L39.2038 26.8525C38.8867 26.5299 38.3683 26.5255 38.0458 26.8425L27.0036 37.6975C26.6811 38.0145 26.6766 38.533 26.9937 38.8555L50.9737 63.2493C51.2908 63.5718 51.8092 63.5762 52.1317 63.2592L63.1739 52.4042C63.4965 52.0872 63.5009 51.5687 63.1839 51.2462Z" fill="#FFC700"/>
<path d="M101.23 71.4762H99.9265L97.2765 67.4825L96.5292 68.5691V71.4841H95.4427V62.4157H96.5292V67.1248L99.7092 62.4157H100.987L97.9576 66.722L101.23 71.4762Z" fill="#4E4E4E"/>
<path d="M101.964 74.0417L102.112 73.1725C102.247 73.2401 102.396 73.2729 102.547 73.2679C102.715 73.2777 102.882 73.2269 103.016 73.1248C103.159 72.9837 103.264 72.8087 103.321 72.616L103.676 71.6116L101.487 64.915H102.547L104.177 70.2946L105.82 64.915H106.864L104.243 72.8651C104.14 73.251 103.919 73.5954 103.612 73.8509C103.319 74.0524 102.969 74.1546 102.613 74.1424C102.392 74.1468 102.173 74.1127 101.964 74.0417Z" fill="#4E4E4E"/>
<path d="M107.193 71.6295V70.7868C107.353 70.782 107.509 70.7289 107.638 70.6343C107.768 70.5397 107.866 70.4081 107.919 70.2568C108.096 69.9034 108.229 69.2533 108.319 68.3063L108.645 64.9116H112.355V71.4731H111.391V65.7703H109.536L109.289 68.4044C109.18 69.5987 108.954 70.437 108.611 70.9193C108.453 71.1468 108.24 71.331 107.992 71.4551C107.745 71.5792 107.47 71.6391 107.193 71.6295Z" fill="#4E4E4E"/>
<path d="M114.16 64.915H115.125V67.4829H116.728C117.004 67.465 117.281 67.5066 117.54 67.6049C117.799 67.7032 118.033 67.8559 118.228 68.0526C118.567 68.4505 118.753 68.9559 118.753 69.4784C118.753 70.0008 118.567 70.5062 118.228 70.9041C118.034 71.1017 117.799 71.2552 117.54 71.354C117.282 71.4527 117.004 71.4945 116.728 71.4765H114.16V64.915ZM116.633 68.3097H115.125V70.647H116.633C116.784 70.656 116.936 70.6323 117.078 70.5774C117.22 70.5225 117.348 70.4378 117.454 70.329C117.64 70.0851 117.741 69.7866 117.741 69.4797C117.741 69.1727 117.64 68.8743 117.454 68.6303C117.348 68.5211 117.22 68.4359 117.078 68.3805C116.937 68.3252 116.785 68.301 116.633 68.3097Z" fill="#4E4E4E"/>
<path d="M122.038 71.4765H121.06V65.7709H119.552V64.915H123.559V65.7709H122.051L122.038 71.4765Z" fill="#4E4E4E"/>
<path d="M124.414 74.0417L124.563 73.1725C124.697 73.2398 124.847 73.2726 124.997 73.2679C125.166 73.2777 125.332 73.2269 125.466 73.1248C125.609 72.9837 125.714 72.8087 125.771 72.616L126.126 71.6116L123.937 64.915H124.997L126.627 70.2946L128.27 64.915H129.33L126.709 72.8651C126.606 73.251 126.386 73.5954 126.078 73.8509C125.785 74.0524 125.435 74.1546 125.079 74.1424C124.853 74.1486 124.628 74.1145 124.414 74.0417Z" fill="#4E4E4E"/>
<path d="M134.712 70.6941C134.533 70.9891 134.279 71.2316 133.976 71.3972C133.673 71.5629 133.332 71.6457 132.987 71.6375C132.254 71.6375 131.679 71.2665 131.262 70.5244V73.9695H130.297V64.9143H131.262V65.8524C131.443 65.5311 131.7 65.2584 132.009 65.0574C132.299 64.8645 132.639 64.7613 132.987 64.7606C133.331 64.7513 133.672 64.8328 133.975 64.997C134.278 65.1612 134.532 65.4023 134.712 65.6961C135.127 66.3215 135.336 67.1545 135.338 68.1951C135.339 69.2356 135.131 70.0686 134.712 70.6941ZM132.743 70.7683C132.988 70.7731 133.229 70.7071 133.437 70.5783C133.646 70.4495 133.812 70.2633 133.917 70.0421C134.205 69.4674 134.343 68.8293 134.317 68.1871C134.344 67.5448 134.207 66.9062 133.917 66.3321C133.811 66.1126 133.644 65.9283 133.436 65.801C133.227 65.6737 132.987 65.6087 132.743 65.6139C132.43 65.6181 132.126 65.7252 131.879 65.9187C131.612 66.1123 131.4 66.3715 131.262 66.6713V69.6738C131.401 69.977 131.613 70.241 131.879 70.4423C132.122 70.6456 132.427 70.7605 132.743 70.7683Z" fill="#4E4E4E"/>
<path d="M141.135 71.4762H140.157V70.7686C139.967 71.0484 139.709 71.2751 139.407 71.4273C139.105 71.5794 138.769 71.6519 138.432 71.6378C138.169 71.642 137.908 71.5912 137.666 71.4885C137.424 71.3858 137.207 71.2335 137.027 71.0416C136.656 70.5971 136.453 70.0368 136.453 69.4582C136.453 68.8795 136.656 68.3192 137.027 67.8748C137.209 67.6854 137.429 67.5358 137.672 67.4355C137.915 67.3351 138.177 67.2862 138.44 67.2918C138.775 67.2728 139.11 67.3403 139.412 67.4879C139.714 67.6354 139.973 67.8581 140.165 68.1345V66.9923C140.177 66.8057 140.151 66.6187 140.091 66.4418C140.031 66.2649 139.936 66.1017 139.812 65.9614C139.682 65.8344 139.526 65.7359 139.356 65.6725C139.185 65.6091 139.003 65.582 138.821 65.5931C138.505 65.5949 138.194 65.6672 137.91 65.8047C137.625 65.9423 137.375 66.1416 137.178 66.3881L136.743 65.6938C137.027 65.3878 137.372 65.1451 137.755 64.9816C138.139 64.8181 138.553 64.7375 138.97 64.7451C139.548 64.7136 140.116 64.9031 140.56 65.2751C140.944 65.6222 141.137 66.1602 141.137 66.8836L141.135 71.4762ZM138.75 70.9329C139.04 70.9445 139.327 70.8724 139.577 70.7254C139.828 70.5784 140.031 70.3625 140.162 70.1034V68.8526C140.034 68.5899 139.833 68.3703 139.582 68.221C139.331 68.0717 139.041 67.9993 138.75 68.0126C138.57 68.0052 138.391 68.0385 138.226 68.1101C138.062 68.1817 137.915 68.2897 137.798 68.426C137.557 68.7174 137.432 69.087 137.446 69.4648C137.433 69.8448 137.558 70.2167 137.798 70.5116C137.913 70.6492 138.059 70.7586 138.222 70.8317C138.386 70.9047 138.565 70.9393 138.744 70.9329H138.75Z" fill="#4E4E4E"/>
<path d="M151.674 71.4765H150.712V66.5315L148.958 71.4765H148.552L146.798 66.5315V71.4765H145.833V64.915H147.111L148.754 69.534L150.399 64.915H151.674V71.4765Z" fill="#4E4E4E"/>
<path d="M155.789 71.6292C155.405 71.6423 155.025 71.5583 154.683 71.385C154.341 71.2117 154.049 70.9548 153.833 70.6381C153.372 69.9035 153.128 69.054 153.128 68.1868C153.128 67.3197 153.372 66.4702 153.833 65.7356C154.06 65.4292 154.356 65.1803 154.697 65.0087C155.038 64.8372 155.414 64.7479 155.795 64.7479C156.177 64.7479 156.553 64.8372 156.894 65.0087C157.234 65.1803 157.53 65.4292 157.758 65.7356C158.22 66.471 158.465 67.3221 158.465 68.1908C158.465 69.0595 158.22 69.9106 157.758 70.6461C157.539 70.9629 157.244 71.2192 156.9 71.3911C156.555 71.563 156.173 71.6449 155.789 71.6292ZM155.789 70.76C156.045 70.7664 156.297 70.6994 156.516 70.567C156.736 70.4346 156.913 70.2423 157.026 70.0127C157.323 69.4483 157.468 68.8163 157.448 68.1789C157.468 67.5466 157.322 66.92 157.026 66.361C156.909 66.1359 156.733 65.9473 156.516 65.8157C156.299 65.6841 156.05 65.6145 155.797 65.6145C155.543 65.6145 155.294 65.6841 155.077 65.8157C154.861 65.9473 154.684 66.1359 154.567 66.361C154.271 66.92 154.126 67.5466 154.146 68.1789C154.125 68.8163 154.27 69.4483 154.567 70.0127C154.676 70.2427 154.85 70.4363 155.067 70.5702C155.283 70.7042 155.534 70.7728 155.789 70.768V70.76Z" fill="#4E4E4E"/>
<path d="M166.207 64.915H167.185V70.6205H167.98V73.146H167.002V71.4765H159.934V64.915H160.896V70.6205H163.069V64.915H164.05V70.6205H166.207V64.915Z" fill="#4E4E4E"/>
<path d="M171.682 71.6295C171.289 71.6444 170.897 71.5654 170.541 71.399C170.184 71.2327 169.872 70.9837 169.631 70.6728C169.102 69.9543 168.835 69.0759 168.876 68.1844C168.844 67.31 169.099 66.4492 169.602 65.7331C169.818 65.4213 170.108 65.1682 170.446 64.9966C170.784 64.8249 171.16 64.7402 171.539 64.75C171.916 64.7336 172.291 64.815 172.628 64.9863C172.965 65.1577 173.251 65.4131 173.46 65.7278C173.934 66.468 174.169 67.3356 174.133 68.2136V68.5104H169.875C169.866 69.1079 170.052 69.6919 170.405 70.1746C170.561 70.3862 170.767 70.5567 171.003 70.6716C171.24 70.7865 171.501 70.8424 171.764 70.8345C172.068 70.8343 172.369 70.7622 172.64 70.624C172.911 70.4859 173.146 70.2856 173.325 70.0395L173.855 70.6092C173.598 70.9372 173.267 71.2003 172.89 71.3775C172.512 71.5547 172.099 71.641 171.682 71.6295ZM173.163 67.7869C173.164 67.2401 173.019 66.703 172.742 66.2314C172.619 66.0177 172.44 65.8419 172.224 65.7231C172.008 65.6044 171.764 65.5474 171.518 65.5582C171.274 65.551 171.033 65.6113 170.821 65.7324C170.609 65.8535 170.435 66.0308 170.317 66.2446C170.038 66.7116 169.886 67.2431 169.875 67.7869H173.163Z" fill="#4E4E4E"/>
<path d="M176.518 71.4765H175.553V64.915H176.518V67.6551H179.112V64.9256H180.074V71.4871H179.112V68.5005H176.518V71.4765Z" fill="#4E4E4E"/>
<path d="M182.833 71.4765H181.861V64.915H182.825V69.6851L185.377 64.915H186.384V71.4765H185.42V66.5951L182.833 71.4765Z" fill="#4E4E4E"/>
<path d="M189.081 71.4763H187.955L189.41 68.7998C189.015 68.7216 188.663 68.502 188.418 68.1823C188.144 67.8178 188.004 67.3691 188.024 66.913C188.013 66.6509 188.055 66.3894 188.146 66.1434C188.237 65.8974 188.375 65.6717 188.554 65.4793C188.748 65.286 188.982 65.1358 189.238 65.0386C189.495 64.9413 189.769 64.8992 190.043 64.9148H192.664V71.4763H191.686V68.9084H190.382L189.081 71.4763ZM190.141 68.079H191.691V65.7443H190.141C189.989 65.7353 189.837 65.759 189.696 65.8139C189.554 65.8688 189.426 65.9535 189.319 66.0623C189.132 66.3059 189.031 66.6044 189.031 66.9116C189.031 67.2188 189.132 67.5174 189.319 67.761C189.427 67.8712 189.557 67.9567 189.7 68.0116C189.844 68.0665 189.998 68.0895 190.152 68.079H190.141Z" fill="#4E4E4E"/>
<path d="M78.092 62.2649H74.1249V72.0621H78.092V62.2649Z" fill="#FFC700"/>
<path d="M78.092 21.9865H74.1249V57.7514H78.092V21.9865Z" fill="#151515"/>
<path d="M88.4339 21.9865H63.7753V25.1533H88.4339V21.9865Z" fill="#151515"/>
<path d="M90.0036 42.9218H84.1921V46.0859H90.0036V42.9218Z" fill="#151515"/>
<path d="M105.707 31.4026C111.054 31.4026 113.18 35.3459 113.18 39.3687C113.18 43.3914 111.06 47.3347 105.593 47.3347H97.9288V57.5373H95.4245V31.4026H105.707ZM105.479 44.9814C109.234 44.9814 110.675 42.2121 110.675 39.3687C110.675 36.5252 109.271 33.7532 105.667 33.7532H97.9288V44.9814H105.479Z" fill="#151515"/>
<path d="M128.314 47.3347L135.522 57.5373H132.485L125.317 47.2949H120.955V57.5373H118.45V31.4026H128.163C133.624 31.4026 135.71 35.3459 135.71 39.3687C135.71 43.3119 133.51 47.3347 128.388 47.3347H128.314ZM120.955 33.7532V44.9814H127.556C131.65 44.9814 133.206 42.4798 133.206 39.3687C133.206 36.2575 131.536 33.7532 128.2 33.7532H120.955Z" fill="#151515"/>
<path d="M144.206 55.2H157.066V57.5506H141.741V31.4026H156.648V33.7532H144.193V43.5398H155.042V45.8931H144.206V55.2Z" fill="#151515"/>
<path d="M161.127 50.5965H163.592C163.819 53.175 166.21 55.6316 169.888 55.6316C174.062 55.6316 176.11 52.8994 176.11 50.4349C176.11 47.5887 173.606 46.224 171.028 45.5774L167.498 44.7426C162.073 43.4547 161.315 40.3064 161.315 38.2182C161.315 33.896 165.29 30.9359 169.623 30.9359C174.062 30.9359 177.552 33.6681 177.703 38.03H175.236C175.085 35.1468 172.657 33.2865 169.546 33.2865C166.589 33.2865 163.819 35.2979 163.819 38.2182C163.819 39.4319 164.198 41.4804 168.06 42.4291L171.626 43.3407C175.761 44.3636 178.604 46.5208 178.604 50.3209C178.604 53.9992 175.57 57.9822 169.88 57.9822C164.728 57.9928 161.315 54.3887 161.127 50.5965Z" fill="#151515"/>
<path d="M182.52 50.5965H184.985C185.213 53.175 187.603 55.6316 191.281 55.6316C195.455 55.6316 197.504 52.8994 197.504 50.4349C197.504 47.5887 194.999 46.224 192.421 45.5774L188.891 44.7426C183.466 43.4547 182.709 40.3064 182.709 38.2182C182.709 33.896 186.684 30.9359 191.016 30.9359C195.455 30.9359 198.945 33.6681 199.096 38.03H196.632C196.478 35.1468 194.051 33.2865 190.94 33.2865C187.982 33.2865 185.213 35.2979 185.213 38.2182C185.213 39.4319 185.592 41.4804 189.453 42.4291L193.02 43.3407C197.154 44.3636 200 46.5208 200 50.3209C200 53.9992 196.963 57.9822 191.274 57.9822C186.124 57.9928 182.709 54.3887 182.52 50.5965Z" fill="#151515"/>
</svg>
