<svg width="73" height="73" viewBox="0 0 73 73" fill="none" xmlns="http://www.w3.org/2000/svg">
<path d="M59.5555 37.4376C59.1177 37.8756 58.5722 38.1904 57.9738 38.35L42.1698 42.5839L33.6777 44.859C31.6335 45.4111 29.481 44.464 28.507 42.5839C27.9682 41.5852 27.8374 40.4165 28.142 39.3233C28.142 39.3233 28.8841 36.5373 29.8818 32.8509C31.804 25.6727 34.6388 15.0637 34.6388 15.0272C34.9988 13.8148 35.9646 12.8777 37.1874 12.5547C38.4101 12.2316 39.7128 12.5692 40.6246 13.4455L48.3746 21.1955L41.4763 28.0938C40.5289 29.0412 40.5289 30.5773 41.4763 31.5247C42.4237 32.4721 43.9598 32.4721 44.9072 31.5247L51.8055 24.6264L59.5555 32.3764C60.2274 33.0471 60.605 33.9576 60.605 34.907C60.605 35.8564 60.2274 36.7668 59.5555 37.4376Z" fill="#FFC700"/>
<path d="M8.51546 24.3345C9.18739 24.3345 9.7321 23.7898 9.7321 23.1179C9.7321 22.446 9.18739 21.9012 8.51546 21.9012C7.84353 21.9012 7.29883 22.446 7.29883 23.1179C7.29883 23.7898 7.84353 24.3345 8.51546 24.3345Z" fill="#151515"/>
<path d="M58.3546 21.7152C59.3185 21.7174 60.2436 21.3356 60.9254 20.6543L71.223 10.3665C73.5945 7.99523 73.5948 4.15043 71.2236 1.77886C68.8523 -0.592715 65.0075 -0.592987 62.636 1.77825L52.3518 12.0795C51.2757 13.171 50.9962 14.8186 51.6522 16.2039L48.377 19.4791L41.4872 12.588C40.269 11.4002 38.5166 10.9392 36.8716 11.3736C35.2265 11.8081 33.9303 13.0742 33.4574 14.7086C33.4574 14.7245 33.4489 14.739 33.4453 14.7561C33.3236 15.2221 31.012 23.8748 28.9352 31.6344H23.116V25.5513C23.116 23.5355 21.4819 21.9014 19.4661 21.9014H13.383C12.711 21.9014 12.1663 22.4461 12.1663 23.118C12.1663 23.7899 12.711 24.3346 13.383 24.3346H19.4661C20.1381 24.3346 20.6828 24.8793 20.6828 25.5513V31.6344H2.43327V25.5513C2.43327 24.8793 2.97797 24.3346 3.6499 24.3346C4.32183 24.3346 4.86654 23.7899 4.86654 23.118C4.86654 22.4461 4.32183 21.9014 3.6499 21.9014C1.63412 21.9014 0 23.5355 0 25.5513V69.3501C0 71.3659 1.63412 73 3.6499 73H69.3481C71.3639 73 72.998 71.3659 72.998 69.3501V64.4836C72.998 62.4678 71.3639 60.8337 69.3481 60.8337H59.6151V54.7505C59.6151 52.7347 57.9809 51.1006 55.9652 51.1006H47.4487V45.0174C47.4453 44.1533 47.1324 43.3189 46.5667 42.6657L58.2853 39.5255C59.0922 39.31 59.8279 38.8853 60.418 38.2943C62.2792 36.4183 62.2792 33.3924 60.418 31.5164L53.5319 24.6315L56.8059 21.3563C57.2897 21.5877 57.8184 21.7102 58.3546 21.7152ZM50.9672 23.7519C50.9599 23.7519 50.9514 23.7604 50.9441 23.7665C50.9368 23.7726 50.9356 23.7823 50.9295 23.7896L44.0519 30.6697C43.5792 31.1427 42.8125 31.143 42.3395 30.6703C41.8664 30.1976 41.8662 29.4309 42.3389 28.9578L53.2058 18.0872L54.9152 19.7978L50.9672 23.7519ZM54.0733 13.7998L64.3599 3.49857C65.795 2.17408 68.0197 2.2185 69.4008 3.59924C70.7818 4.97997 70.8268 7.20467 69.5026 8.64006L59.2038 18.9291C58.9784 19.1559 58.6719 19.2834 58.3522 19.2834C58.0325 19.2834 57.726 19.1559 57.5006 18.9291L54.094 15.5226L54.0842 15.5128C53.6111 15.0416 53.6062 14.2771 54.0733 13.7998ZM28.2892 34.0677C27.8086 35.8647 27.3548 37.5546 26.9655 39.0097C26.7593 39.7781 26.715 40.581 26.8353 41.3675H12.1663V34.0677H28.2892ZM49.882 63.2669V70.5667H25.5493V63.2669H49.882ZM12.1663 60.8337V53.5339H36.499V60.8337H12.1663ZM2.43327 60.8337V53.5339H9.73307V60.8337H2.43327ZM2.43327 51.1006V43.8008H23.116V51.1006H2.43327ZM9.73307 34.0677V41.3675H2.43327V34.0677H9.73307ZM2.43327 69.3501V63.2669H23.116V70.5667H3.6499C2.97797 70.5667 2.43327 70.022 2.43327 69.3501ZM69.3481 63.2669C70.0201 63.2669 70.5648 63.8116 70.5648 64.4836V69.3501C70.5648 70.022 70.0201 70.5667 69.3481 70.5667H52.3153V63.2669H69.3481ZM55.9652 53.5339C56.6371 53.5339 57.1818 54.0786 57.1818 54.7505V60.8337H38.9323V53.5339H55.9652ZM43.7988 43.8008C44.4708 43.8008 45.0155 44.3455 45.0155 45.0174V51.1006H25.5493V43.8008H27.8293C28.0152 44.0671 28.2232 44.3174 28.451 44.549C29.5163 45.627 30.9686 46.2337 32.4841 46.2341C32.9936 46.233 33.5007 46.1655 33.9928 46.0333L42.3291 43.8008H43.7988ZM58.6941 33.2368C59.1412 33.6774 59.3929 34.2789 59.3929 34.9066C59.3929 35.5343 59.1412 36.1358 58.6941 36.5764C58.4078 36.8637 58.0506 37.0702 57.6587 37.175L33.3613 43.6791C32.2235 43.9798 31.0116 43.6528 30.1794 42.8206C29.3472 41.9884 29.0202 40.7765 29.3209 39.6387C34.5159 20.2455 35.5829 16.2635 35.8019 15.3413H35.8165C36.0625 14.5475 36.7004 13.9368 37.504 13.7254C38.3077 13.5141 39.1635 13.7322 39.7681 14.3023L46.6616 21.1957L40.6246 27.2351C39.2054 28.6594 39.2054 30.9632 40.6246 32.3875C42.0488 33.8059 44.3517 33.8059 45.7759 32.3875L51.8128 26.3482L58.6941 33.2368Z" fill="#151515"/>
</svg>
