<svg width="14" height="30" viewBox="0 0 14 30" fill="none" xmlns="http://www.w3.org/2000/svg">
<path d="M4.12288 0H9.87712C11.0108 0 12.0424 0.464689 12.7888 1.21116C13.537 1.95763 14 2.98917 14 4.12453V16.3828C14 17.5165 13.537 18.548 12.7888 19.2945C12.0424 20.0426 11.0108 20.5056 9.87712 20.5056H4.12288C2.98917 20.5056 1.95763 20.0426 1.21116 19.2945C0.463041 18.548 0 17.5165 0 16.3828V4.12453C0 2.98917 0.463041 1.95763 1.21116 1.21116C1.95763 0.464689 2.98917 0 4.12288 0ZM9.87712 0.916196H4.12288C3.24129 0.916196 2.44044 1.27707 1.85876 1.85876C1.27707 2.44044 0.916196 3.24294 0.916196 4.12453V16.3828C0.916196 17.2644 1.27707 18.0652 1.85876 18.6469C2.44044 19.2286 3.24129 19.5895 4.12288 19.5895H9.87712C10.7587 19.5895 11.5596 19.2286 12.1412 18.6469C12.7229 18.0652 13.0838 17.2644 13.0838 16.3828V4.12453C13.0838 3.24294 12.7229 2.44044 12.1412 1.85876C11.5596 1.27707 10.7587 0.916196 9.87712 0.916196Z" fill="#B1B1B1"/>
<path d="M7.4577 4.16729V8.11221H6.5415V4.16729H7.4577Z" fill="#B1B1B1"/>
<path fill-rule="evenodd" clip-rule="evenodd" d="M6.54468 22.8804H7.45428V28.1386H6.54468V22.8804Z" fill="#B1B1B1"/>
<path fill-rule="evenodd" clip-rule="evenodd" d="M6.96267 29.8127L4.6936 26.4775L5.36757 25.8909L6.62157 27.771L7.30213 27.748L8.55942 25.9271L9.30919 26.4594L6.96267 29.8127Z" fill="#B1B1B1"/>
</svg>
